<svg width="24" height="24" viewBox="0 0 24 24" fill="none" xmlns="http://www.w3.org/2000/svg">
<path d="M7.95225 8.7922C5.93495 10.8095 0.689977 19.2822 2.30382 20.896C3.91765 22.5098 12.3903 17.2649 14.4076 15.2476C16.4249 13.2303 17.6353 12.0199 14.4076 8.7922C11.1799 5.56452 9.96955 6.7749 7.95225 8.7922Z" fill="#E09A6B" stroke="#E09A6B" stroke-width="2"/>
<path d="M14.0001 14.9595L12.5601 13.5195" stroke="white" stroke-width="2" stroke-linecap="round" stroke-linejoin="round"/>
<path d="M6.7998 10.6396L8.2398 12.0796" stroke="white" stroke-width="2" stroke-linecap="round" stroke-linejoin="round"/>
<path d="M8.71977 18.3204L7.75977 17.3604" stroke="white" stroke-width="2" stroke-linecap="round" stroke-linejoin="round"/>
<path d="M14.48 2C14.9777 2.49778 15.3013 3.56798 14.4801 4.98658M21.2 8.72C20.7023 8.22222 19.6321 7.89867 18.2136 8.72M18.5871 4.61305L16.7206 6.47971" stroke="#E09A6B" stroke-width="2" stroke-linecap="round" stroke-linejoin="round"/>
</svg>
