<svg width="24" height="24" viewBox="0 0 24 24" fill="none" xmlns="http://www.w3.org/2000/svg">
<path d="M16.4 15.52C19.051 15.52 21.2 13.371 21.2 10.72C21.2 9.63921 20.8428 8.64185 20.24 7.83953C18.1996 5.12372 15.44 4 11.6 4C7.76 4 2 6.75048 2 10.24C2 11.5655 3.07452 12.64 4.4 12.64H7.76C9.03079 12.6088 11.6 13.12 13.7462 14.7203C14.5064 15.2256 15.4188 15.52 16.4 15.52Z" stroke="#DE6A67" stroke-width="2"/>
<path d="M2 10.2402V10.7202C2 13.4355 2 14.7932 2.84353 15.6367C3.68706 16.4802 5.04471 16.4802 7.76 16.4802C9.03079 16.4491 11.6 16.9602 13.7462 18.5605C14.5064 19.0658 15.4188 19.3602 16.4 19.3602C19.051 19.3602 21.2 17.2112 21.2 14.5602V10.7202" stroke="#DE6A67" stroke-width="2"/>
<path d="M17.84 10.7193C17.84 11.5146 17.1953 12.1593 16.4 12.1593C15.6047 12.1593 14.96 11.5146 14.96 10.7193C14.96 9.92401 15.6047 9.2793 16.4 9.2793C17.1953 9.2793 17.84 9.92401 17.84 10.7193Z" stroke="#DE6A67" stroke-width="2"/>
</svg>
