<svg width="24" height="24" viewBox="0 0 24 24" fill="none" xmlns="http://www.w3.org/2000/svg">
<path d="M21.2 9.71973V13.2825C21.2 15.8579 21.2 17.1456 20.4554 18.0009C19.7899 18.7654 18.7346 18.9489 16.7578 19.1623C16.5192 19.188 16.304 19.029 16.2005 18.8124C15.8863 18.1551 15.2339 17.7034 14.48 17.7034C13.5883 17.7034 12.8386 18.3353 12.6226 19.1919C12.5646 19.4219 12.388 19.6175 12.1521 19.642L8.33314 20.039C5.3744 20.3466 3.89501 20.5003 2.9475 19.609C2 18.7176 2 17.172 2 14.0809V10.7177" stroke="#6A99DF" stroke-width="2" stroke-linecap="round" stroke-linejoin="round"/>
<path d="M6.73257 11.5608L17.8102 11.0969C20.442 10.9867 22.0347 10.2148 20.7426 7.47306C19.8447 5.56794 18.23 4.04277 16.2301 3.21697C14.9352 2.68229 13.9157 3.22757 12.8443 3.86019C12.4781 4.07642 12.6357 4.49559 12.6357 4.83403C12.6357 5.90798 11.7689 6.77859 10.6996 6.77859C10.2289 6.77859 9.79736 6.60987 9.46179 6.32935C8.54744 5.56499 1.68561 10.0292 2.01122 11.0576C2.23022 11.7493 3.731 11.6864 6.73257 11.5608Z" fill="#6A99DF" stroke="#6A99DF" stroke-width="2" stroke-linejoin="round"/>
<path d="M15.4473 8.00098L15.4386 8.00098" stroke="white" stroke-width="3" stroke-linecap="round" stroke-linejoin="round"/>
<path d="M16.4077 14.7207L16.3991 14.7207" stroke="#6A99DF" stroke-width="3" stroke-linecap="round" stroke-linejoin="round"/>
<path d="M6.80018 15.6812C6.80018 16.4765 7.44489 17.1212 8.24018 17.1212C9.03547 17.1212 9.68018 16.4765 9.68018 15.6812C9.68018 14.8859 9.03547 14.2412 8.24018 14.2412C7.44489 14.2412 6.80018 14.8859 6.80018 15.6812Z" stroke="#6A99DF" stroke-width="2"/>
</svg>
