<svg width="24" height="24" viewBox="0 0 24 24" fill="none" xmlns="http://www.w3.org/2000/svg">
<path d="M11.9999 21.6004C8.02981 21.6004 4.7998 18.5583 4.7998 14.8191C4.7998 9.60039 11.9999 2.40039 11.9999 2.40039C11.9999 2.40039 19.1998 9.60039 19.1998 14.8191C19.1998 18.5584 15.9699 21.6004 11.9999 21.6004Z" fill="black"/>
<path d="M11.9999 21.6004C10.0148 21.6004 8.3998 20.0793 8.3998 18.2097C8.3998 15.6004 11.9999 12.0004 11.9999 12.0004C11.9999 12.0004 15.5998 15.6004 15.5998 18.2097C15.5998 20.0794 13.9849 21.6004 11.9999 21.6004Z" fill="black"/>
<path d="M11.9999 21.6004C8.02981 21.6004 4.7998 18.5583 4.7998 14.8191C4.7998 9.60039 11.9999 2.40039 11.9999 2.40039C11.9999 2.40039 19.1998 9.60039 19.1998 14.8191C19.1998 18.5584 15.9699 21.6004 11.9999 21.6004ZM11.9999 21.6004C10.0148 21.6004 8.3998 20.0793 8.3998 18.2097C8.3998 15.6004 11.9999 12.0004 11.9999 12.0004C11.9999 12.0004 15.5998 15.6004 15.5998 18.2097C15.5998 20.0794 13.9849 21.6004 11.9999 21.6004Z" stroke="white" stroke-linejoin="round"/>
</svg>
