<svg width="3424" height="1018" viewBox="0 0 3424 1018" fill="none" xmlns="http://www.w3.org/2000/svg">
<g clip-path="url(#clip0_16188_15703)">
<path d="M3297.66 954.078V271.873C3297.66 265.185 3300.99 261.841 3307.64 261.841H3413.46C3420.12 261.841 3423.44 265.185 3423.44 271.873V954.078C3423.44 960.766 3420.12 964.11 3413.46 964.11H3307.64C3300.99 964.11 3297.66 960.766 3297.66 954.078Z" fill="#1E1A24"/>
<path d="M3114.78 954.078L3054.88 778.511H2807.31L2747.41 954.078C2745.41 960.766 2741.42 964.11 2735.43 964.11H2626.62C2619.3 964.11 2615.64 960.766 2615.64 954.078C2615.64 952.071 2615.97 950.065 2616.64 948.058L2862.21 271.873C2864.21 265.185 2867.54 261.841 2872.19 261.841H2989.99C2994.65 261.841 2997.98 265.185 2999.97 271.873L3245.55 948.058C3246.22 950.065 3246.55 952.071 3246.55 954.078C3246.55 960.766 3242.89 964.11 3235.57 964.11H3126.75C3120.77 964.11 3116.77 960.766 3114.78 954.078ZM2931.09 417.343L2847.24 662.134H3014.95L2931.09 417.343Z" fill="#1E1A24"/>
<path d="M2299.26 954.078V271.873C2299.26 265.185 2302.59 261.841 2309.24 261.841H2409.07C2415.72 261.841 2419.05 265.185 2419.05 271.873V954.078C2419.05 960.766 2415.72 964.11 2409.07 964.11H2309.24C2302.59 964.11 2299.26 960.766 2299.26 954.078Z" fill="#1E1A24"/>
<path d="M1877.66 614.985H1776.84C1772.18 614.985 1769.85 612.978 1769.85 608.965C1769.85 604.952 1770.18 601.608 1770.85 598.933C1780.83 555.459 1804.45 520.011 1841.72 492.589C1878.99 464.498 1926.24 450.453 1983.48 450.453C2048.03 450.453 2099.61 467.843 2138.21 502.622C2176.81 537.401 2196.11 584.553 2196.11 644.079V861.782C2196.11 900.574 2202.43 931.34 2215.08 954.081C2219.07 960.769 2216.74 964.113 2208.09 964.113H2086.3C2079.65 964.113 2076.32 960.769 2076.32 954.081V924.987C2037.05 957.759 1989.47 974.145 1933.57 974.145C1881.65 974.145 1838.4 959.097 1803.79 929C1769.18 898.233 1751.88 857.435 1751.88 806.604C1751.88 753.767 1770.85 712.634 1808.78 683.205C1847.38 653.108 1895.63 638.059 1953.53 638.059C1987.47 638.059 2028.4 644.748 2076.32 658.124V644.079C2076.32 617.994 2068.33 597.261 2052.36 581.878C2036.39 566.495 2013.43 558.803 1983.48 558.803C1939.55 558.803 1908.94 574.521 1891.64 605.956C1887.64 611.975 1882.99 614.985 1877.66 614.985ZM2076.32 760.455C2029.73 747.078 1990.47 740.39 1958.52 740.39C1932.57 740.39 1910.94 746.075 1893.63 757.445C1876.33 768.146 1867.68 783.529 1867.68 803.594C1867.68 822.99 1875.33 838.373 1890.64 849.743C1905.95 860.445 1927.58 865.795 1955.53 865.795C1987.47 865.795 2015.42 856.097 2039.38 836.701C2064.01 816.636 2076.32 791.221 2076.32 760.455Z" fill="#1E1A24"/>
<path d="M1574.09 712.298H1674.92C1682.24 712.298 1685.9 715.642 1685.9 722.331C1676.58 799.246 1642.97 860.444 1585.07 905.924C1527.17 951.404 1456.63 974.144 1373.44 974.144C1332.84 974.144 1293.58 967.122 1255.64 953.076C1217.71 938.362 1183.1 916.96 1151.82 888.869C1120.54 860.778 1095.25 822.989 1075.95 775.502C1057.32 728.016 1048 673.841 1048 612.977C1048 552.114 1057.32 497.939 1075.95 450.452C1095.25 402.965 1120.54 365.176 1151.82 337.086C1183.1 308.995 1217.71 287.927 1255.64 273.881C1293.58 259.167 1332.84 251.81 1373.44 251.81C1456.63 251.81 1527.17 274.55 1585.07 320.03C1642.97 365.511 1676.58 426.709 1685.9 503.624C1685.9 510.312 1682.24 513.656 1674.92 513.656H1574.09C1568.1 513.656 1564.11 510.312 1562.11 503.624C1536.16 413.332 1473.27 368.186 1373.44 368.186C1320.86 368.186 1274.94 389.589 1235.68 432.394C1197.08 475.199 1177.78 535.393 1177.78 612.977C1177.78 690.561 1197.08 750.756 1235.68 793.561C1274.94 836.366 1320.86 857.768 1373.44 857.768C1473.27 857.768 1536.16 812.622 1562.11 722.331C1564.11 715.642 1568.1 712.298 1574.09 712.298Z" fill="#1E1A24"/>
<path fill-rule="evenodd" clip-rule="evenodd" d="M39.2074 776.169C124.562 1011.32 264.39 1054.04 414.643 992.957C417.091 991.962 419.731 991.421 422.373 991.42H423.839C426.486 991.419 429.131 991.96 431.584 992.957C581.834 1054.03 721.659 1011.32 807.012 776.165C958.429 359.007 655.407 219.992 465.766 320.333C455.655 229.167 554.237 143.065 604.792 105.08L566.876 54.4319C528.96 79.7519 478.404 121.962 465.766 143.065C427.849 3.7674 259.333 -8.87381 187.713 3.78813C162.435 219.039 314.101 290.792 389.933 282.351V320.337C-1.86859 181.055 -52.4237 586.237 39.2074 776.169Z" fill="#1E1A24"/>
</g>
<defs>
<clipPath id="clip0_16188_15703">
<rect width="3424" height="1018" fill="white"/>
</clipPath>
</defs>
</svg>
