<svg width="24" height="24" viewBox="0 0 24 24" fill="none" xmlns="http://www.w3.org/2000/svg">
<path fill-rule="evenodd" clip-rule="evenodd" d="M3.80625 6.20659C4.70639 5.30673 5.92707 4.80122 7.19985 4.80122C8.47264 4.80122 9.69332 5.30673 10.5935 6.20659L11.9999 7.61179L13.4063 6.20659C13.849 5.74815 14.3787 5.38247 14.9643 5.13091C15.5499 4.87934 16.1798 4.74693 16.8171 4.74139C17.4545 4.73585 18.0865 4.8573 18.6764 5.09865C19.2663 5.34 19.8023 5.69641 20.2529 6.1471C20.7036 6.59778 21.06 7.13371 21.3014 7.72361C21.5427 8.31352 21.6642 8.94558 21.6587 9.58292C21.6531 10.2203 21.5207 10.8501 21.2691 11.4357C21.0176 12.0214 20.6519 12.551 20.1934 12.9938L11.9999 21.1886L3.80625 12.9938C2.90639 12.0937 2.40088 10.873 2.40088 9.60019C2.40088 8.32741 2.90639 7.10673 3.80625 6.20659V6.20659Z" fill="#FF5754" stroke="#FF5754" stroke-width="2" stroke-linejoin="round"/>
</svg>
