<svg width="24" height="24" viewBox="0 0 24 24" fill="none" xmlns="http://www.w3.org/2000/svg">
<path d="M12.1744 21.6537V7.69003M10.5495 6.85234C10.7223 6.89114 10.9045 6.84359 11.0289 6.71913C11.1534 6.59467 11.2009 6.41244 11.1622 6.23964C11.007 5.60585 10.4355 3.48361 9.84861 2.89674C9.11745 2.16558 7.92745 2.16254 7.1999 2.89008C6.47241 3.61757 6.47535 4.80757 7.20656 5.53879C7.80303 6.13526 9.91569 6.69721 10.5495 6.85234ZM12.324 6.23959C12.2852 6.41246 12.3328 6.59462 12.4572 6.71908C12.5817 6.84354 12.7639 6.89101 12.9367 6.85229C13.5705 6.69714 15.6928 6.1256 16.2796 5.53874C17.0108 4.80758 17.0138 3.61758 16.2863 2.89003C15.5588 2.16254 14.3688 2.16548 13.6376 2.8967C13.0411 3.49317 12.4792 5.60582 12.324 6.23959ZM3.09808 12.5773H20.9017C21.2873 12.5773 21.5999 12.2647 21.5999 11.8791V8.38822C21.5999 8.00262 21.2873 7.69003 20.9017 7.69003H3.09808C2.71249 7.69003 2.3999 8.00262 2.3999 8.38821V11.8791C2.3999 12.2647 2.71249 12.5773 3.09808 12.5773ZM19.8544 12.5773V20.9555C19.8544 21.3411 19.5419 21.6537 19.1563 21.6537H4.84354C4.45794 21.6537 4.14536 21.3411 4.14536 20.9555V12.5773H19.8544Z" stroke="#222222" stroke-width="2" stroke-linecap="round" stroke-linejoin="round"/>
</svg>
